<svg width="1024" height="1024" viewBox="0 0 1024 1024" fill="none" xmlns="http://www.w3.org/2000/svg">
<circle cx="511" cy="512" r="500" fill="black"/>
<path d="M611.064 237.6V757H506.764V713.6C479.698 746.267 440.498 762.6 389.164 762.6C353.698 762.6 321.498 754.667 292.564 738.8C264.098 722.933 241.698 700.3 225.364 670.9C209.031 641.5 200.864 607.433 200.864 568.7C200.864 529.967 209.031 495.9 225.364 466.5C241.698 437.1 264.098 414.467 292.564 398.6C321.498 382.733 353.698 374.8 389.164 374.8C437.231 374.8 474.798 389.967 501.864 420.3V237.6H611.064ZM408.064 673C435.598 673 458.464 663.667 476.664 645C494.864 625.867 503.964 600.433 503.964 568.7C503.964 536.967 494.864 511.767 476.664 493.1C458.464 473.967 435.598 464.4 408.064 464.4C380.064 464.4 356.964 473.967 338.764 493.1C320.564 511.767 311.464 536.967 311.464 568.7C311.464 600.433 320.564 625.867 338.764 645C356.964 663.667 380.064 673 408.064 673ZM753.432 762.6C734.299 762.6 718.199 756.067 705.132 743C692.066 729.933 685.532 713.6 685.532 694C685.532 673.933 692.066 657.833 705.132 645.7C718.199 633.1 734.299 626.8 753.432 626.8C772.566 626.8 788.666 633.1 801.732 645.7C814.799 657.833 821.332 673.933 821.332 694C821.332 713.6 814.799 729.933 801.732 743C788.666 756.067 772.566 762.6 753.432 762.6Z" fill="white"/>
</svg>
