<svg width="1024" height="1024" viewBox="0 0 1024 1024" fill="none" xmlns="http://www.w3.org/2000/svg">
<rect width="1024" height="1024" fill="black"/>
<path d="M640.154 159.2V827H506.054V771.2C471.254 813.2 420.854 834.2 354.854 834.2C309.254 834.2 267.854 824 230.654 803.6C194.054 783.2 165.254 754.1 144.254 716.3C123.254 678.5 112.754 634.7 112.754 584.9C112.754 535.1 123.254 491.3 144.254 453.5C165.254 415.7 194.054 386.6 230.654 366.2C267.854 345.8 309.254 335.6 354.854 335.6C416.654 335.6 464.954 355.1 499.754 394.1V159.2H640.154ZM379.154 719C414.554 719 443.954 707 467.354 683C490.754 658.4 502.454 625.7 502.454 584.9C502.454 544.1 490.754 511.7 467.354 487.7C443.954 463.1 414.554 450.8 379.154 450.8C343.154 450.8 313.454 463.1 290.054 487.7C266.654 511.7 254.954 544.1 254.954 584.9C254.954 625.7 266.654 658.4 290.054 683C313.454 707 343.154 719 379.154 719ZM823.199 834.2C798.599 834.2 777.899 825.8 761.099 809C744.299 792.2 735.899 771.2 735.899 746C735.899 720.2 744.299 699.5 761.099 683.9C777.899 667.7 798.599 659.6 823.199 659.6C847.799 659.6 868.499 667.7 885.299 683.9C902.099 699.5 910.499 720.2 910.499 746C910.499 771.2 902.099 792.2 885.299 809C868.499 825.8 847.799 834.2 823.199 834.2Z" fill="white"/>
</svg>
